<?xml version="1.0" standalone="no"?>
<!DOCTYPE svg PUBLIC "-//W3C//DTD SVG 20010904//EN"
 "http://www.w3.org/TR/2001/REC-SVG-20010904/DTD/svg10.dtd">
<svg version="1.0" xmlns="http://www.w3.org/2000/svg"
 width="360.000000pt" height="360.000000pt" viewBox="0 0 360.000000 360.000000"
 preserveAspectRatio="xMidYMid meet">

<g transform="translate(0.000000,360.000000) scale(0.100000,-0.100000)"
fill="#000000" stroke="none">
<path d="M993 2485 c-107 -29 -206 -102 -257 -189 -26 -44 -56 -136 -56 -171
0 -18 7 -15 49 25 139 130 377 173 561 100 68 -27 153 -83 186 -124 l26 -31
-7 50 c-14 113 -103 244 -203 298 -99 54 -202 68 -299 42z"/>
<path d="M2413 2485 c-107 -29 -194 -92 -252 -183 -30 -49 -61 -138 -61 -180
0 -23 0 -23 25 6 38 45 129 102 209 130 57 20 91 25 171 25 156 1 278 -45 374
-141 l44 -44 -7 48 c-11 78 -69 185 -128 239 -61 55 -107 80 -185 100 -70 18
-121 18 -190 0z"/>
<path d="M794 1490 c-29 -11 -54 -49 -54 -78 0 -13 14 -58 31 -100 146 -355
463 -612 838 -677 350 -62 719 54 969 304 124 124 237 307 273 443 11 40 10
49 -5 72 -31 48 -95 56 -129 18 -9 -10 -27 -47 -41 -85 -94 -250 -311 -460
-566 -549 -189 -65 -431 -65 -620 0 -196 68 -363 199 -478 375 -44 67 -112
210 -112 235 0 30 -70 58 -106 42z"/>
</g>
</svg>
