<?xml version="1.0" standalone="no"?>
<!DOCTYPE svg PUBLIC "-//W3C//DTD SVG 20010904//EN"
 "http://www.w3.org/TR/2001/REC-SVG-20010904/DTD/svg10.dtd">
<svg version="1.0" xmlns="http://www.w3.org/2000/svg"
 width="360.000000pt" height="360.000000pt" viewBox="0 0 360.000000 360.000000"
 preserveAspectRatio="xMidYMid meet">

<g transform="translate(0.000000,360.000000) scale(0.100000,-0.100000)"
fill="#000000" stroke="none">
<path d="M553 3556 c-28 -7 -91 -32 -139 -55 -166 -80 -297 -247 -339 -433
-14 -65 -15 -168 -13 -893 l3 -820 27 -73 c38 -105 83 -176 158 -252 74 -73
147 -120 248 -158 63 -24 81 -26 305 -31 196 -5 239 -9 247 -21 6 -9 10 -169
10 -382 0 -201 3 -374 6 -383 4 -8 20 -23 36 -31 46 -24 89 -11 134 39 20 23
192 207 381 409 l345 367 536 4 c593 3 559 0 703 72 98 50 220 171 271 270 77
149 73 91 73 1025 l0 835 -28 80 c-61 171 -173 303 -320 375 -153 74 -65 70
-1397 69 -922 -1 -1207 -4 -1247 -13z m943 -722 c66 -18 153 -76 229 -153 33
-34 68 -61 78 -61 11 0 58 37 106 83 51 48 110 93 143 110 219 106 475 13 582
-212 26 -56 32 -80 34 -158 4 -98 -10 -163 -51 -233 -11 -19 -194 -209 -406
-422 -301 -303 -391 -388 -410 -388 -20 0 -109 84 -407 383 -337 338 -385 390
-412 447 -84 173 -45 382 93 508 119 109 259 141 421 96z"/>
</g>
</svg>
