<?xml version="1.0" standalone="no"?>
<!DOCTYPE svg PUBLIC "-//W3C//DTD SVG 20010904//EN"
 "http://www.w3.org/TR/2001/REC-SVG-20010904/DTD/svg10.dtd">
<svg version="1.0" xmlns="http://www.w3.org/2000/svg"
 width="360.000000pt" height="360.000000pt" viewBox="0 0 360.000000 360.000000"
 preserveAspectRatio="xMidYMid meet">

<g transform="translate(0.000000,360.000000) scale(0.100000,-0.100000)"
fill="#000000" stroke="none">
<path d="M1580 3526 c-588 -85 -1075 -433 -1336 -957 -242 -484 -241 -1067 0
-1551 230 -458 631 -782 1132 -915 l139 -36 251 -5 c227 -4 263 -2 364 17 669
129 1201 630 1370 1291 25 98 26 142 2 163 -24 22 -75 22 -94 0 -8 -10 -27
-67 -42 -127 -66 -272 -198 -511 -394 -717 -254 -268 -592 -440 -959 -489
-135 -18 -401 -8 -533 20 -634 135 -1121 627 -1251 1266 -29 144 -36 377 -15
526 51 361 205 668 467 928 223 222 522 378 834 436 77 15 145 19 300 18 176
0 214 -3 320 -26 66 -14 133 -31 148 -37 l29 -11 -31 -35 c-66 -75 -101 -180
-101 -300 0 -209 129 -415 378 -603 87 -65 250 -164 290 -177 38 -11 228 98
366 211 l56 45 21 -48 c33 -77 68 -185 84 -264 18 -85 36 -109 80 -109 50 0
69 28 62 93 -9 73 -59 239 -105 346 l-39 89 44 58 c115 153 157 326 118 477
-53 205 -216 336 -416 337 -67 0 -170 -30 -218 -63 l-34 -23 -77 39 c-90 46
-181 58 -278 37 -56 -11 -63 -11 -153 19 -170 57 -314 81 -509 86 -117 3 -206
0 -270 -9z m1140 -251 c19 -10 54 -35 77 -56 56 -52 79 -50 140 8 136 127 354
80 440 -95 24 -49 28 -69 28 -142 0 -99 -17 -152 -80 -250 -72 -112 -201 -229
-372 -336 l-86 -54 -46 26 c-368 213 -549 470 -492 701 23 93 97 175 188 209
49 19 157 13 203 -11z"/>
<path d="M1235 2280 c-11 -4 -62 -51 -114 -103 -80 -81 -94 -101 -94 -128 0
-36 31 -69 65 -69 11 0 52 31 92 70 l72 70 59 -60 c69 -69 105 -88 140 -72 27
12 40 49 31 84 -7 28 -183 204 -211 211 -11 3 -29 2 -40 -3z"/>
<path d="M2330 2283 c-8 -3 -59 -49 -112 -101 -84 -83 -98 -101 -98 -129 0
-35 29 -73 55 -73 28 0 69 28 124 84 l55 56 72 -70 c40 -39 81 -70 92 -70 34
0 65 33 65 69 0 28 -14 47 -99 131 -97 96 -123 114 -154 103z"/>
<path d="M3420 1830 c-26 -26 -25 -60 0 -88 41 -43 120 -13 120 45 0 32 -34
63 -70 63 -17 0 -39 -9 -50 -20z"/>
<path d="M807 1742 c-25 -27 -23 -228 2 -342 87 -392 389 -694 779 -780 118
-26 315 -27 432 -1 307 68 557 265 696 546 74 151 95 237 101 413 5 127 4 145
-12 162 -18 20 -36 20 -1000 20 -939 0 -983 -1 -998 -18z m1878 -186 c-4 -41
-10 -89 -14 -108 l-7 -33 -859 0 -859 0 -7 33 c-4 19 -10 67 -14 108 l-7 74
887 0 887 0 -7 -74z m-75 -291 c0 -11 -43 -91 -73 -135 -52 -78 -115 -147
-182 -200 l-65 -52 -72 67 c-237 219 -595 219 -828 -2 l-70 -65 -65 52 c-67
53 -130 122 -182 200 -30 44 -73 124 -73 135 0 3 362 5 805 5 443 0 805 -2
805 -5z m-709 -309 c37 -8 90 -26 118 -41 52 -26 131 -90 131 -106 0 -15 -157
-58 -251 -70 -67 -8 -117 -8 -185 0 -95 11 -254 55 -254 70 0 16 79 80 131
107 55 27 151 52 209 53 19 0 65 -6 101 -13z"/>
</g>
</svg>
